<?xml version="1.0" encoding="utf-8"?>
<!-- Generator: Adobe Illustrator 23.0.3, SVG Export Plug-In . SVG Version: 6.00 Build 0)  -->
<svg version="1.1" id="Layer_1" xmlns="http://www.w3.org/2000/svg" xmlns:xlink="http://www.w3.org/1999/xlink" x="0px" y="0px"
	 viewBox="0 0 340.5 96.8" style="enable-background:new 0 0 340.5 96.8;" xml:space="preserve">
<g>
	<path style="fill:#003057;" d="M70.7,89.2c-0.5-0.1-1.1,0-1.5,0.2c-5.6,2.8-11.5,4.5-17.7,5C43,95,34.9,93.4,27.2,89.5
		C6,78.7-3.8,54.1,4.8,31.9C11.8,14,25.4,4.1,44.4,2.1C51.9,1.3,59.2,2.5,66,5.6c16.8,7.6,26.3,20.7,28.2,39.1
		c0.9,8.9-1,17.3-5.2,25.2c-0.4,0.7-0.2,0.8-0.3,1.6v20.3L70.7,89.2z"/>
	<path style="fill:#003057;" d="M148.5,63.5h8.4V53.4c0-5.4,1.3-8.3,5.1-8.3c2.8,0,4,1.8,4,5.5v13h8.5V49.7c0-3.5-0.1-6.1-1.8-8.2
		c-1.5-1.9-4-2.9-7.2-2.9c-4.2,0-7,1.7-9.3,5.7v-4.9h-7.8V63.5z"/>
</g>
<rect x="178.9" y="39.3" style="fill:#003057;" width="8.5" height="24.2"/>
<g>
	<path style="fill:#003057;" d="M178.5,31.8c0,2.5,2.1,4.8,4.7,4.8c2.6,0,4.7-2.1,4.7-4.8c0-2.6-2.1-4.7-4.7-4.7
		C180.6,27.1,178.5,29.2,178.5,31.8"/>
	<path style="fill:#003057;" d="M106.4,43.4L106.4,43.4c1.8-3,4.6-4.3,8-4.3h1.7v8.3c-1.2-0.7-2.3-0.8-3.6-0.8c-4.8,0-6,3.2-6,7.3
		v9.8h-8.6V39.5h8.6V43.4z"/>
	<path style="fill:#003057;" d="M125.2,51.6c0,3.1,2,5.4,5.5,5.4c3.5,0,5.5-2.4,5.5-5.4c0-3-2-5.5-5.5-5.5
		C127.3,46.1,125.2,48.7,125.2,51.6 M144.6,63.8H136v-2.7h-0.1c-1.5,2.4-4.5,3.5-7.3,3.5c-7.2,0-12.3-6-12.3-13
		c0-7,5-12.9,12.2-12.9c2.8,0,5.7,1,7.5,3.2v-2.4h8.6V63.8z"/>
</g>
<polygon style="fill:#FFFFFF;" points="40.2,63.8 50.1,63.8 50.1,49 63.3,49 63.3,63.8 73.2,63.8 73.2,27.5 63.3,27.5 63.3,41.6 
	50.1,41.6 50.1,27.5 40.2,27.5 "/>
<rect x="77.7" y="38.8" style="fill:#FFFFFF;" width="8.8" height="25"/>
<g>
	<path style="fill:#FFFFFF;" d="M77.2,31c0,2.6,2.1,4.9,4.9,4.9c2.6,0,4.9-2.2,4.9-4.9c0-2.7-2.2-4.9-4.9-4.9
		C79.4,26.1,77.2,28.3,77.2,31"/>
</g>
<line style="fill:none;stroke:#A8123E;stroke-width:0.716;stroke-linecap:round;stroke-linejoin:round;" x1="199.8" y1="24.1" x2="199.8" y2="63.5"/>
<g>
	<path style="fill:#8E8C89;" d="M316.4,62.2v-5.8h1c1,0,1.7,0,2.4,0.5c0.6,0.5,0.9,1.3,0.9,2.4c0,1-0.3,1.8-0.9,2.4
		c-0.6,0.5-1.3,0.5-2.2,0.5H316.4z M315,63.4h2.2c1.3,0,2.4,0,3.4-0.8c0.9-0.7,1.4-1.9,1.4-3.3c0-1.5-0.5-2.6-1.4-3.3
		c-1-0.8-2.2-0.8-3.7-0.8H315V63.4z M305.8,63.4h1.2v-5.7c0.2,0.3,0.5,0.6,0.8,0.9l5.3,5.1v-8.5h-1.2v5.7c-0.3-0.3-0.6-0.7-0.9-1
		l-5.2-5V63.4z M299.9,60.2l0.8-1.9c0.1-0.2,0.2-0.5,0.3-0.9c0.1,0.4,0.2,0.7,0.3,0.9l0.8,1.9H299.9z M303.6,63.4h1.4l-4-8.5l-4,8.5
		h1.4l1-2.1h3.2L303.6,63.4z M292.8,63.4h4.3v-1.2h-3v-7h-1.3V63.4z M286.7,63.4h4.6v-1.2H288v-2.6h3.2v-1.2H288v-2.1h3.2v-1.1h-4.6
		V63.4z M281.6,58.7v-2.4h0.2c1.2,0,1.8,0.2,1.8,1.2c0,1-0.6,1.1-1.8,1.1H281.6z M281.5,59.8h0.1l2.7,3.7h1.5l-2.8-3.7
		c1.2-0.1,1.9-0.9,1.9-2.2c0-0.8-0.3-1.4-0.8-1.8c-0.5-0.4-1.2-0.5-2-0.5h-1.9v8.2h1.2V59.8z M277,63.4h1.3v-8.2H277V63.4z
		 M264.3,63.4h1.2v-5.7c0.2,0.3,0.5,0.6,0.8,0.9l5.3,5.1v-8.5h-1.2v5.7c-0.3-0.3-0.6-0.7-0.9-1l-5.2-5V63.4z M259.2,58.7v-2.4h0.2
		c1.2,0,1.8,0.2,1.8,1.2c0,1-0.6,1.1-1.8,1.1H259.2z M259.2,59.8h0.1l2.7,3.7h1.5l-2.8-3.7c1.2-0.1,1.9-0.9,1.9-2.2
		c0-0.8-0.3-1.4-0.8-1.8c-0.5-0.4-1.2-0.5-2-0.5h-1.9v8.2h1.3V59.8z M251.8,63.4h4.6v-1.2h-3.2v-2.6h3.2v-1.2h-3.2v-2.1h3.2v-1.1
		h-4.6V63.4z M243.2,63.4h1.3v-4h4v4h1.3v-8.2h-1.3v3h-4v-3h-1.3V63.4z M240,56.4h2.2v-1.1h-5.7v1.1h2.2v7.1h1.3V56.4z M232.3,58.7
		v-2.4h0.2c1.2,0,1.8,0.2,1.8,1.2c0,1-0.6,1.1-1.8,1.1H232.3z M232.2,59.8h0.1l2.7,3.7h1.5l-2.8-3.7c1.2-0.1,1.9-0.9,1.9-2.2
		c0-0.8-0.3-1.4-0.8-1.8c-0.5-0.4-1.2-0.5-2-0.5H231v8.2h1.3V59.8z M228,59.4c0,0.8-0.3,1.6-0.9,2.2c-0.6,0.6-1.3,0.9-2.1,0.9
		c-0.8,0-1.5-0.3-2.1-0.9c-0.6-0.6-0.9-1.3-0.9-2.2c0-0.8,0.3-1.6,0.9-2.2c0.6-0.6,1.3-0.9,2.1-0.9c0.8,0,1.5,0.3,2.1,0.9
		C227.7,57.8,228,58.5,228,59.4 M229.4,59.4c0-1.2-0.4-2.2-1.3-3.1c-0.8-0.8-1.9-1.3-3.1-1.3c-1.2,0-2.3,0.4-3.1,1.3
		c-0.8,0.8-1.3,1.9-1.3,3.1s0.4,2.2,1.3,3c0.8,0.8,1.9,1.3,3.1,1.3c1.2,0,2.3-0.4,3.1-1.3C229,61.6,229.4,60.5,229.4,59.4
		 M211.8,63.4h1.2v-5.7c0.2,0.3,0.5,0.6,0.8,0.9l5.3,5.1v-8.5h-1.2v5.7c-0.3-0.3-0.6-0.7-0.9-1l-5.2-5V63.4z"/>
	<path style="fill:#3F3C39;" d="M324.3,49.7h5v-1.8h-2.8v-1.4h2.7v-1.8h-2.7v-1.4h2.8v-1.8h-5V49.7z M323,41.8
		c-0.7-0.3-1.4-0.5-2.1-0.5c-2.4,0-4.2,1.8-4.2,4.3s1.7,4.3,4.2,4.3c0.7,0,1.4-0.2,2.1-0.5v-2.4c-0.6,0.7-1.2,1-1.9,1
		c-1.3,0-2.2-1-2.2-2.3c0-1.4,0.9-2.4,2.2-2.4c0.7,0,1.3,0.3,1.9,1V41.8z M307.3,49.7h2.2v-4.1c0-0.4,0-1-0.1-1.6
		c0.4,0.9,0.7,1.3,0.7,1.4l3.1,4.2h2.1v-8.2h-2.1v4.1c0,0.4,0,1,0.1,1.6c-0.4-0.9-0.7-1.3-0.7-1.4l-3.1-4.2h-2.2V49.7z M301.2,46.6
		l0.8-2.7c0-0.1,0.1-0.5,0.3-1.1c0.1,0.6,0.2,1,0.3,1.1l0.8,2.7H301.2z M298.1,49.7h2.2l0.4-1.5h3.2l0.4,1.5h2.2l-2.8-8.2h-2.8
		L298.1,49.7z M295,49.7h2.3v-8.2H295V49.7z M288.8,49.7h5v-1.9H291v-6.3h-2.2V49.7z M282.7,49.7h5v-1.9h-2.8v-6.3h-2.2V49.7z
		 M276.6,46.6l0.8-2.7c0-0.1,0.1-0.5,0.3-1.1c0.1,0.6,0.2,1,0.3,1.1l0.8,2.7H276.6z M273.4,49.7h2.2l0.4-1.5h3.2l0.4,1.5h2.2
		l-2.8-8.2h-2.8L273.4,49.7z M261.6,49.7h2.2v-3.3h3v3.3h2.2v-8.2h-2.2v3.2h-3v-3.2h-2.2V49.7z M260.4,41.8
		c-0.7-0.3-1.4-0.5-2.1-0.5c-2.4,0-4.2,1.8-4.2,4.3s1.7,4.3,4.2,4.3c0.7,0,1.4-0.2,2.1-0.5v-2.4c-0.6,0.7-1.2,1-1.9,1
		c-1.3,0-2.2-1-2.2-2.3c0-1.4,0.9-2.4,2.2-2.4c0.7,0,1.3,0.3,1.9,1V41.8z M247.1,49.7h2.1v-3.2l1.9,3.2h2.5l-2.2-3.3
		c1.2-0.3,1.8-1.1,1.8-2.3c0-0.8-0.3-1.5-0.9-2c-0.7-0.5-1.6-0.6-2.7-0.6h-2.5V49.7z M249.2,45.3v-2.2h0.4c0.9,0,1.4,0.3,1.4,1.1
		c0,0.7-0.4,1-1.4,1H249.2z M240.9,46.6l0.8-2.7c0-0.1,0.1-0.5,0.3-1.1c0.1,0.6,0.2,1,0.3,1.1l0.8,2.7H240.9z M237.8,49.7h2.2
		l0.4-1.5h3.2l0.4,1.5h2.2l-2.8-8.2h-2.8L237.8,49.7z M232.3,49.7h5v-1.8h-2.8v-1.4h2.7v-1.8h-2.7v-1.4h2.8v-1.8h-5V49.7z M226,47
		l-1,1.7c0.9,0.8,1.8,1.2,2.9,1.2c1.9,0,3.1-1.2,3.1-2.9c0-1.5-0.8-2.1-2.3-2.4c-0.7-0.2-1.3-0.3-1.3-0.9c0-0.4,0.4-0.7,0.9-0.7
		c0.5,0,1.1,0.2,1.6,0.7l0.7-1.6c-0.7-0.5-1.5-0.7-2.4-0.7c-1.7,0-2.8,1.1-2.8,2.7c0,1.3,0.7,1.9,2.2,2.3c0.9,0.2,1.4,0.4,1.4,1.1
		c0,0.5-0.4,0.8-1,0.8C227.3,48.1,226.6,47.8,226,47 M219.1,49.7h5v-1.8h-2.8v-1.4h2.7v-1.8h-2.7v-1.4h2.8v-1.8h-5V49.7z
		 M211.7,49.7h2.1v-3.2l1.9,3.2h2.5l-2.2-3.3c1.2-0.3,1.8-1.1,1.8-2.3c0-0.8-0.3-1.5-0.9-2c-0.7-0.5-1.6-0.6-2.7-0.6h-2.5V49.7z
		 M213.8,45.3v-2.2h0.4c0.9,0,1.4,0.3,1.4,1.1c0,0.7-0.4,1-1.4,1H213.8z"/>
	<path style="fill:#3F3C39;" d="M329.9,35.9h2.2v-4.1c0-0.4,0-1-0.1-1.6c0.4,0.9,0.7,1.3,0.7,1.4l3.1,4.2h2.1v-8.2h-2.1v4
		c0,0.4,0,1,0.1,1.6c-0.4-0.9-0.7-1.3-0.7-1.4l-3.1-4.2h-2.2V35.9z M328.5,31.8c0-1.2-0.4-2.2-1.3-3c-0.8-0.8-2-1.3-3.1-1.3
		c-1.1,0-2.3,0.5-3.1,1.3c-0.8,0.8-1.3,1.9-1.3,3c0,1.3,0.6,2.5,1.6,3.3c0.8,0.6,1.8,1,2.8,1c1.1,0,2.3-0.4,3.1-1.3
		C328,34.1,328.5,33,328.5,31.8 M324.1,34.2c-1.3,0-2.1-1.1-2.1-2.4c0-1.3,0.9-2.4,2.1-2.4c1.3,0,2.1,1.1,2.1,2.4
		C326.2,33.2,325.4,34.2,324.1,34.2 M316,35.9h2.3v-8.2H316V35.9z M310.8,35.9h2.2v-6.3h1.8v-1.9h-5.9v1.9h1.8V35.9z M303.9,32.8
		l0.8-2.7c0-0.1,0.1-0.5,0.3-1.1c0.1,0.6,0.2,1,0.3,1.1l0.8,2.7H303.9z M300.8,35.9h2.2l0.4-1.5h3.2l0.4,1.5h2.2l-2.8-8.2h-2.8
		L300.8,35.9z M296.2,35.9h1.7l3.4-8.2H299l-1.6,4.6c0,0.1-0.1,0.5-0.3,1.1c-0.1-0.6-0.2-1-0.3-1.1l-1.6-4.6h-2.4L296.2,35.9z
		 M292.6,31.8c0-1.2-0.4-2.2-1.3-3c-0.8-0.8-2-1.3-3.1-1.3c-1.1,0-2.3,0.5-3.1,1.3c-0.8,0.8-1.3,1.9-1.3,3c0,1.3,0.6,2.5,1.6,3.3
		c0.8,0.6,1.8,1,2.8,1c1.1,0,2.3-0.4,3.1-1.3C292.2,34.1,292.6,33,292.6,31.8 M288.3,34.2c-1.3,0-2.1-1.1-2.1-2.4
		c0-1.3,0.9-2.4,2.1-2.4c1.3,0,2.1,1.1,2.1,2.4C290.4,33.2,289.5,34.2,288.3,34.2 M274.4,35.9h2.2v-4.1c0-0.4,0-1-0.1-1.6
		c0.4,0.9,0.7,1.3,0.7,1.4l3.1,4.2h2.1v-8.2h-2.1v4c0,0.4,0,1,0.1,1.6c-0.4-0.9-0.7-1.3-0.7-1.4l-3.1-4.2h-2.2V35.9z M264.7,35.9
		h2.2v-4.1c0-0.4,0-1-0.1-1.6c0.4,0.9,0.7,1.3,0.7,1.4l3.1,4.2h2.1v-8.2h-2.1v4c0,0.4,0,1,0.1,1.6c-0.4-0.9-0.7-1.3-0.7-1.4
		l-3.1-4.2h-2.2V35.9z M260.6,35.9h2.3v-8.2h-2.3V35.9z M247.8,35.9h2.2v-3.3h3v3.3h2.2v-8.2H253v3.2h-3v-3.2h-2.2V35.9z
		 M242.6,35.9h2.2v-6.3h1.8v-1.9h-5.9v1.9h1.8V35.9z M235.7,35.9h5V34H238v-6.3h-2.2V35.9z M229.6,32.8l0.8-2.7
		c0-0.1,0.1-0.5,0.3-1.1c0.1,0.6,0.2,1,0.3,1.1l0.8,2.7H229.6z M226.5,35.9h2.2l0.4-1.5h3.2l0.4,1.5h2.2l-2.8-8.2h-2.8L226.5,35.9z
		 M220.9,35.9h5v-1.8h-2.8v-1.4h2.7v-1.8h-2.7v-1.4h2.8v-1.8h-5V35.9z M211.7,35.9h2.2v-3.3h3v3.3h2.2v-8.2H217v3.2h-3v-3.2h-2.2
		V35.9z"/>
	<path style="fill:#A8123E;" d="M264.4,87.3h1.8v-3.6c0-1,0-1.7,0.4-2.1c0.4-0.6,1-0.9,1.9-0.9c1.5,0,1.7,0.8,1.7,2.6v4h1.8v-4.8
		c0-0.9,0-1.7-0.4-2.2c-0.5-0.7-1.3-1.1-2.5-1.1c-1.4,0-2.3,0.5-3,1.6v-6.3h-1.7V87.3z M259.7,87.3h1.8V81h1.4v-1.6h-1.4v-3h-1.8v3
		h-1.4V81h1.4V87.3z M255,87.3h1.8V74.5H255V87.3z M252.4,87.3v-7.8h-1.8v1.3c-0.4-1-1.4-1.6-2.6-1.6c-2.1,0-3.5,1.7-3.5,4.2
		c0,2.7,1.4,4.2,3.6,4.2c1.1,0,1.9-0.4,2.6-1.3v1H252.4z M250.7,83.3c0,1.7-0.9,2.7-2.2,2.7c-1.4,0-2.1-0.9-2.1-2.6
		c0-1.7,0.8-2.6,2.2-2.6C249.8,80.8,250.7,81.7,250.7,83.3 M243.2,83.6v-0.3c0-2.6-1.5-4.1-4-4.1c-2.4,0-4.1,1.8-4.1,4.2
		c0,2.6,1.6,4.2,4.1,4.2c1.8,0,3-0.8,3.9-2.3l-1.5-0.8c-0.6,1.1-1.3,1.5-2.5,1.5c-1.3,0-2.1-0.9-2.2-2.3H243.2z M241.3,82.4H237
		c0.3-1.2,1-1.7,2.2-1.7C240.4,80.7,241.2,81.3,241.3,82.4 M223.1,87.3h2v-5.9h6v5.9h2V75.2h-2v4.5h-6v-4.5h-2V87.3z M213.4,80.7
		v-1.3h-1.8v7.8h1.8v-3.4c0-2.1,0.4-3.1,1.7-3.1c0.4,0,0.8,0.1,1.1,0.3l0.6-1.5c-0.5-0.2-1-0.4-1.5-0.4
		C214.4,79.2,213.8,79.7,213.4,80.7 M207.9,83.4c0,1.5-1.1,2.6-2.4,2.6c-1.3,0-2.4-1.1-2.4-2.6s1.1-2.6,2.4-2.6
		S207.9,81.9,207.9,83.4 M201.1,83.4c0,1.1,0.4,2.2,1.3,3c0.8,0.8,1.9,1.2,3,1.2c1.2,0,2.2-0.4,3.1-1.3c0.8-0.8,1.3-1.8,1.3-3
		c0-1.1-0.5-2.2-1.3-3c-0.8-0.8-1.9-1.2-3.1-1.2c-1.1,0-2.2,0.4-3,1.2C201.6,81.2,201.1,82.2,201.1,83.4 M196.8,87.3h1.8V81h1.9
		v-1.6h-1.9v-1.9c0-1.2,0.3-1.7,1.2-1.7c0.3,0,0.6,0.1,0.9,0.3v-1.6c-0.4-0.1-0.8-0.2-1.2-0.2c-1.8,0-2.7,1-2.7,3v2.1h-1.4V81h1.4
		V87.3z M183.3,85.9c0.6,1.2,1.6,1.7,3.1,1.7c2,0,3.2-1,3.2-2.5c0-1.1-0.6-1.8-2-2.3c-1.2-0.5-2.1-0.6-2.1-1.4
		c0-0.5,0.4-0.9,1.1-0.9c0.6,0,1.1,0.3,1.3,0.8l1.3-0.9c-0.4-0.8-1.3-1.3-2.5-1.3c-1.9,0-3,1-3,2.4c0,1.1,0.8,1.7,2.2,2.4
		c1.1,0.5,1.9,0.5,1.9,1.3c0,0.6-0.5,1-1.3,1c-0.9,0-1.5-0.4-1.8-1.2L183.3,85.9z M176.1,83.3c0-1.6,0.8-2.6,2.1-2.6
		c1.4,0,2.2,1,2.2,2.6c0,1.7-0.8,2.6-2.1,2.6C177,86,176.1,85,176.1,83.3 M174.4,91h1.8v-4.7c0.6,0.9,1.5,1.3,2.6,1.3
		c2.2,0,3.6-1.6,3.6-4.2c0-2.5-1.4-4.2-3.5-4.2c-1.3,0-2.2,0.6-2.7,1.6v-1.3h-1.8V91z M169.8,76.1c0,0.6,0.5,1.1,1.1,1.1
		s1.1-0.5,1.1-1.1c0-0.6-0.5-1.1-1.1-1.1S169.8,75.5,169.8,76.1 M170,87.3h1.8v-7.8H170V87.3z M160,87.3h1.8v-3.6c0-1,0-1.7,0.4-2.1
		c0.4-0.6,1-0.9,1.9-0.9c1.5,0,1.7,0.8,1.7,2.6v4h1.8v-4.8c0-0.9,0-1.7-0.4-2.2c-0.5-0.7-1.3-1.1-2.5-1.1c-1.4,0-2.3,0.5-3,1.6v-6.3
		H160V87.3z M151.9,85.9c0.6,1.2,1.6,1.7,3.1,1.7c2,0,3.2-1,3.2-2.5c0-1.1-0.6-1.8-2-2.3c-1.2-0.5-2.1-0.6-2.1-1.4
		c0-0.5,0.4-0.9,1.1-0.9c0.6,0,1.1,0.3,1.3,0.8l1.3-0.9c-0.4-0.8-1.3-1.3-2.5-1.3c-1.9,0-3,1-3,2.4c0,1.1,0.8,1.7,2.2,2.4
		c1.1,0.5,1.9,0.5,1.9,1.3c0,0.6-0.5,1-1.3,1c-0.9,0-1.5-0.4-1.8-1.2L151.9,85.9z M148.4,80.7v-1.3h-1.8v7.8h1.8v-3.4
		c0-2.1,0.4-3.1,1.7-3.1c0.4,0,0.8,0.1,1.1,0.3l0.6-1.5c-0.5-0.2-1-0.4-1.5-0.4C149.4,79.2,148.7,79.7,148.4,80.7 M144.7,83.6v-0.3
		c0-2.6-1.5-4.1-4-4.1c-2.4,0-4.1,1.8-4.1,4.2c0,2.6,1.6,4.2,4.1,4.2c1.8,0,3-0.8,3.9-2.3l-1.5-0.8c-0.6,1.1-1.3,1.5-2.5,1.5
		c-1.3,0-2.1-0.9-2.2-2.3H144.7z M142.8,82.4h-4.3c0.3-1.2,1-1.7,2.2-1.7C142,80.7,142.7,81.3,142.8,82.4 M127.2,87.3h1.8v-3.6
		c0-1,0-1.7,0.4-2.1c0.4-0.6,1-0.9,1.9-0.9c1.5,0,1.7,0.8,1.7,2.6v4h1.8v-4.8c0-0.9,0-1.7-0.4-2.2c-0.5-0.7-1.3-1.1-2.5-1.1
		c-1.4,0-2.3,0.5-3,1.6v-1.3h-1.7V87.3z M122.5,87.3h1.8V81h1.4v-1.6h-1.4v-3h-1.8v3h-1.4V81h1.4V87.3z M117.7,80.7v-1.3h-1.8v7.8
		h1.8v-3.4c0-2.1,0.4-3.1,1.7-3.1c0.4,0,0.8,0.1,1.1,0.3l0.6-1.5c-0.5-0.2-1-0.4-1.5-0.4C118.7,79.2,118,79.7,117.7,80.7
		 M113.4,87.3v-7.8h-1.8v1.3c-0.4-1-1.4-1.6-2.6-1.6c-2.1,0-3.5,1.7-3.5,4.2c0,2.7,1.4,4.2,3.6,4.2c1.1,0,1.9-0.4,2.6-1.3v1H113.4z
		 M111.7,83.3c0,1.7-0.9,2.7-2.2,2.7c-1.4,0-2.1-0.9-2.1-2.6c0-1.7,0.8-2.6,2.2-2.6C110.8,80.8,111.7,81.7,111.7,83.3 M99.8,80.2
		v-3.4h0.5c1.8,0,2.7,0.3,2.7,1.8c0,1.4-0.9,1.6-2.7,1.6H99.8z M99.7,81.9h1.1c1.2,0,2.2,0,3-0.6c0.7-0.5,1.2-1.6,1.2-2.7
		c0-1.2-0.5-2.2-1.2-2.7c-0.8-0.6-1.8-0.6-3-0.6h-3v12.1h1.8V81.9z"/>
</g>
</svg>
