<?xml version="1.0" encoding="utf-8"?>
<!-- Generator: Adobe Illustrator 23.0.3, SVG Export Plug-In . SVG Version: 6.00 Build 0)  -->
<svg version="1.1" id="Layer_1" xmlns="http://www.w3.org/2000/svg" xmlns:xlink="http://www.w3.org/1999/xlink" x="0px" y="0px"
	 viewBox="0 0 318 91" style="enable-background:new 0 0 318 91;" xml:space="preserve">
<style type="text/css">
	.st0{fill:#FFFFFF;}
	.st1{fill:#003057;}
	.st2{fill:none;stroke:#FFFFFF;stroke-width:0.716;stroke-linecap:round;stroke-linejoin:round;}
</style>
<g>
	<g>
		<path class="st0" d="M65.7,83.8c-0.5-0.1-1,0-1.4,0.2c-5.3,2.6-10.8,4.2-16.6,4.7c-8,0.6-15.6-0.9-22.8-4.6
			C5,73.9-4.1,50.8,3.9,30C10.5,13.2,23.2,4,41,2.1c7-0.8,13.9,0.4,20.3,3.3C77.1,12.5,86,24.8,87.7,42c0.8,8.3-0.9,16.2-4.9,23.6
			c-0.4,0.7-0.2,0.8-0.3,1.5v19L65.7,83.8z"/>
		<path class="st0" d="M138.7,59.7h7.9v-9.5c0-5.1,1.2-7.8,4.8-7.8c2.6,0,3.8,1.7,3.8,5.2v12.2h8v-13c0-3.3-0.1-5.7-1.7-7.7
			c-1.4-1.8-3.8-2.7-6.8-2.7c-3.9,0-6.6,1.6-8.7,5.3v-4.6h-7.3V59.7L138.7,59.7z"/>
	</g>
	<rect x="167.2" y="37" class="st0" width="8" height="22.7"/>
	<g>
		<path class="st0" d="M166.8,29.9c0,2.3,2,4.5,4.4,4.5s4.4-2,4.4-4.5c0-2.4-2-4.4-4.4-4.4C168.8,25.5,166.8,27.5,166.8,29.9"/>
		<path class="st0" d="M99.2,40.8L99.2,40.8c1.7-2.8,4.3-4,7.5-4h1.6v7.8c-1.1-0.7-2.2-0.8-3.4-0.8c-4.5,0-5.6,3-5.6,6.8v9.2h-8.1
			V37.2h8.1L99.2,40.8L99.2,40.8z"/>
		<path class="st0" d="M116.8,48.5c0,2.9,1.9,5.1,5.2,5.1c3.3,0,5.2-2.3,5.2-5.1s-1.9-5.2-5.2-5.2C118.8,43.3,116.8,45.8,116.8,48.5
			 M135,59.9h-8.1v-2.5h-0.1c-1.4,2.3-4.2,3.3-6.8,3.3c-6.8,0-11.5-5.6-11.5-12.2s4.7-12.1,11.4-12.1c2.6,0,5.3,0.9,7,3v-2.3h8.1
			V59.9L135,59.9z"/>
	</g>
	<polygon class="st1" points="37.1,59.9 46.4,59.9 46.4,46.1 58.8,46.1 58.8,59.9 68.1,59.9 68.1,25.9 58.8,25.9 58.8,39.1 
		46.4,39.1 46.4,25.9 37.1,25.9 	"/>
	<rect x="72.3" y="36.5" class="st1" width="8.3" height="23.4"/>
	<g>
		<path class="st1" d="M71.8,29.2c0,2.4,2,4.6,4.6,4.6c2.4,0,4.6-2.1,4.6-4.6s-2.1-4.6-4.6-4.6C73.9,24.6,71.8,26.7,71.8,29.2"/>
	</g>
	<line class="st2" x1="186.8" y1="22.7" x2="186.8" y2="59.7"/>
	<g>
		<path class="st0" d="M296.1,58.4V53h0.9c0.9,0,1.6,0,2.3,0.5c0.6,0.5,0.8,1.2,0.8,2.3c0,0.9-0.3,1.7-0.8,2.3
			c-0.6,0.5-1.2,0.5-2.1,0.5L296.1,58.4z M294.8,59.6h2.1c1.2,0,2.3,0,3.2-0.8c0.8-0.7,1.3-1.8,1.3-3.1c0-1.4-0.5-2.4-1.3-3.1
			c-0.9-0.8-2.1-0.8-3.5-0.8h-1.8L294.8,59.6L294.8,59.6z M286.2,59.6h1.1v-5.3c0.2,0.3,0.5,0.6,0.8,0.8l5,4.8v-8H292v5.3
			c-0.3-0.3-0.6-0.7-0.8-0.9l-4.9-4.7L286.2,59.6L286.2,59.6z M280.6,56.6l0.8-1.8c0.1-0.2,0.2-0.5,0.3-0.8c0.1,0.4,0.2,0.7,0.3,0.8
			l0.8,1.8H280.6z M284.1,59.6h1.3l-3.8-8l-3.8,8h1.3l0.9-2h3L284.1,59.6z M274,59.6h4v-1.1h-2.8v-6.6H274V59.6z M268.3,59.6h4.3
			v-1.1h-3.1V56h3v-1.1h-3v-2h3v-1h-4.3L268.3,59.6L268.3,59.6z M263.5,55.2v-2.3h0.2c1.1,0,1.7,0.2,1.7,1.1c0,0.9-0.6,1-1.7,1
			L263.5,55.2L263.5,55.2z M263.4,56.2L263.4,56.2l2.6,3.5h1.4l-2.6-3.5c1.1-0.1,1.8-0.8,1.8-2.1c0-0.8-0.3-1.3-0.8-1.7
			s-1.1-0.5-1.9-0.5h-1.8v7.7h1.1L263.4,56.2L263.4,56.2z M259.2,59.6h1.2v-7.7h-1.2V59.6z M247.2,59.6h1.1v-5.3
			c0.2,0.3,0.5,0.6,0.8,0.8l5,4.8v-8H253v5.3c-0.3-0.3-0.6-0.7-0.8-0.9l-4.9-4.7L247.2,59.6L247.2,59.6z M242.5,55.2v-2.3h0.2
			c1.1,0,1.7,0.2,1.7,1.1c0,0.9-0.6,1-1.7,1L242.5,55.2L242.5,55.2z M242.5,56.2L242.5,56.2l2.6,3.5h1.4l-2.6-3.5
			c1.1-0.1,1.8-0.8,1.8-2.1c0-0.8-0.3-1.3-0.8-1.7S243.8,52,243,52h-1.8v7.7h1.2L242.5,56.2L242.5,56.2z M235.5,59.6h4.3v-1.1h-3V56
			h3v-1.1h-3v-2h3v-1h-4.3V59.6L235.5,59.6z M227.5,59.6h1.2v-3.8h3.8v3.8h1.2v-7.7h-1.2v2.8h-3.8v-2.8h-1.2V59.6z M224.5,53h2.1v-1
			h-5.3v1h2.1v6.7h1.2V53H224.5z M217.2,55.2v-2.3h0.2c1.1,0,1.7,0.2,1.7,1.1c0,0.9-0.6,1-1.7,1L217.2,55.2L217.2,55.2z M217.1,56.2
			L217.1,56.2l2.6,3.5h1.4l-2.6-3.5c1.1-0.1,1.8-0.8,1.8-2.1c0-0.8-0.3-1.3-0.8-1.7s-1.1-0.5-1.9-0.5H216v7.7h1.2L217.1,56.2
			L217.1,56.2z M213.2,55.8c0,0.8-0.3,1.5-0.8,2.1c-0.6,0.6-1.2,0.8-2,0.8s-1.4-0.3-2-0.8s-0.8-1.2-0.8-2.1c0-0.8,0.3-1.5,0.8-2.1
			c0.6-0.6,1.2-0.8,2-0.8s1.4,0.3,2,0.8C212.9,54.3,213.2,55,213.2,55.8 M214.5,55.8c0-1.1-0.4-2.1-1.2-2.9
			c-0.8-0.8-1.8-1.2-2.9-1.2c-1.1,0-2.2,0.4-2.9,1.2c-0.8,0.8-1.2,1.8-1.2,2.9c0,1.1,0.4,2.1,1.2,2.8c0.8,0.8,1.8,1.2,2.9,1.2
			s2.2-0.4,2.9-1.2C214.1,57.9,214.5,56.8,214.5,55.8 M198,59.6h1.1v-5.3c0.2,0.3,0.5,0.6,0.8,0.8l5,4.8v-8h-1.1v5.3
			c-0.3-0.3-0.6-0.7-0.8-0.9l-4.9-4.7L198,59.6L198,59.6z"/>
		<path class="st0" d="M303.5,46.7h4.7V45h-2.6v-1.3h2.5V42h-2.5v-1.3h2.6V39h-4.7V46.7z M302.3,39.3c-0.7-0.3-1.3-0.5-2-0.5
			c-2.3,0-3.9,1.7-3.9,4s1.6,4,3.9,4c0.7,0,1.3-0.2,2-0.5V44c-0.6,0.7-1.1,0.9-1.8,0.9c-1.2,0-2.1-0.9-2.1-2.2s0.8-2.3,2.1-2.3
			c0.7,0,1.2,0.3,1.8,0.9V39.3z M287.6,46.7h2.1v-3.8c0-0.4,0-0.9-0.1-1.5c0.4,0.8,0.7,1.2,0.7,1.3l2.9,3.9h2v-7.7h-2v3.8
			c0,0.4,0,0.9,0.1,1.5c-0.4-0.8-0.7-1.2-0.7-1.3l-2.9-3.9h-2.1V46.7z M281.8,43.8l0.8-2.5c0-0.1,0.1-0.5,0.3-1
			c0.1,0.6,0.2,0.9,0.3,1l0.8,2.5H281.8z M278.9,46.7h2.1l0.4-1.4h3l0.4,1.4h2.1l-2.6-7.7h-2.6L278.9,46.7z M276,46.7h2.2V39H276
			V46.7z M270.2,46.7h4.7v-1.8h-2.6V39h-2.1V46.7z M264.5,46.7h4.7v-1.8h-2.6V39h-2.1V46.7z M258.8,43.8l0.8-2.5
			c0-0.1,0.1-0.5,0.3-1c0.1,0.6,0.2,0.9,0.3,1l0.8,2.5H258.8z M255.8,46.7h2.1l0.4-1.4h3l0.4,1.4h2.1L261,39h-2.6L255.8,46.7z
			 M244.7,46.7h2.1v-3.1h2.8v3.1h2.1V39h-2.1v3h-2.8v-3h-2.1V46.7z M243.6,39.3c-0.7-0.3-1.3-0.5-2-0.5c-2.3,0-3.9,1.7-3.9,4
			s1.6,4,3.9,4c0.7,0,1.3-0.2,2-0.5V44c-0.6,0.7-1.1,0.9-1.8,0.9c-1.2,0-2.1-0.9-2.1-2.2s0.8-2.3,2.1-2.3c0.7,0,1.2,0.3,1.8,0.9
			V39.3z M231.1,46.7h2v-3l1.8,3h2.3l-2.1-3.1c1.1-0.3,1.7-1,1.7-2.2c0-0.8-0.3-1.4-0.8-1.9c-0.7-0.5-1.5-0.6-2.5-0.6h-2.3
			L231.1,46.7L231.1,46.7z M233.1,42.6v-2.1h0.4c0.8,0,1.3,0.3,1.3,1s-0.4,0.9-1.3,0.9L233.1,42.6L233.1,42.6z M225.3,43.8l0.8-2.5
			c0-0.1,0.1-0.5,0.3-1c0.1,0.6,0.2,0.9,0.3,1l0.8,2.5H225.3z M222.4,46.7h2.1l0.4-1.4h3l0.4,1.4h2.1l-2.6-7.7H225L222.4,46.7z
			 M217.2,46.7h4.7V45h-2.6v-1.3h2.5V42h-2.5v-1.3h2.6V39h-4.7V46.7z M211.3,44.2l-0.9,1.6c0.8,0.8,1.7,1.1,2.7,1.1
			c1.8,0,2.9-1.1,2.9-2.7c0-1.4-0.8-2-2.2-2.3c-0.7-0.2-1.2-0.3-1.2-0.8c0-0.4,0.4-0.7,0.8-0.7s1,0.2,1.5,0.7l0.7-1.5
			c-0.7-0.5-1.4-0.7-2.3-0.7c-1.6,0-2.6,1-2.6,2.5c0,1.2,0.7,1.8,2.1,2.2c0.8,0.2,1.3,0.4,1.3,1c0,0.5-0.4,0.8-0.9,0.8
			C212.6,45.2,211.9,44.9,211.3,44.2 M204.9,46.7h4.7V45H207v-1.3h2.5V42H207v-1.3h2.6V39h-4.7V46.7z M197.9,46.7h2v-3l1.8,3h2.3
			l-2.1-3.1c1.1-0.3,1.7-1,1.7-2.2c0-0.8-0.3-1.4-0.8-1.9c-0.7-0.5-1.5-0.6-2.5-0.6H198L197.9,46.7L197.9,46.7z M199.9,42.6v-2.1
			h0.4c0.8,0,1.3,0.3,1.3,1s-0.4,0.9-1.3,0.9L199.9,42.6L199.9,42.6z"/>
		<path class="st0" d="M308.8,33.8h2.1V30c0-0.4,0-0.9-0.1-1.5c0.4,0.8,0.7,1.2,0.7,1.3l2.9,3.9h2V26h-2v3.8c0,0.4,0,0.9,0.1,1.5
			c-0.4-0.8-0.7-1.2-0.7-1.3l-2.9-3.9h-2.1V33.8z M307.4,29.9c0-1.1-0.4-2.1-1.2-2.8c-0.8-0.8-1.9-1.2-2.9-1.2s-2.2,0.5-2.9,1.2
			c-0.8,0.8-1.2,1.8-1.2,2.8c0,1.2,0.6,2.3,1.5,3.1c0.8,0.6,1.7,0.9,2.6,0.9c1,0,2.2-0.4,2.9-1.2C307,32.1,307.4,31.1,307.4,29.9
			 M303.3,32.2c-1.2,0-2-1-2-2.3s0.8-2.3,2-2.3s2,1,2,2.3S304.5,32.2,303.3,32.2 M295.7,33.8h2.2v-7.7h-2.2V33.8z M290.8,33.8h2.1
			v-5.9h1.7v-1.8h-5.5v1.8h1.7L290.8,33.8L290.8,33.8z M284.4,30.9l0.8-2.5c0-0.1,0.1-0.5,0.3-1c0.1,0.6,0.2,0.9,0.3,1l0.8,2.5
			H284.4z M281.5,33.8h2.1l0.4-1.4h3l0.4,1.4h2.1l-2.6-7.7h-2.6L281.5,33.8z M277.2,33.8h1.6l3.2-7.7h-2.2l-1.5,4.3
			c0,0.1-0.1,0.5-0.3,1c-0.1-0.6-0.2-0.9-0.3-1l-1.5-4.3H274L277.2,33.8z M273.8,29.9c0-1.1-0.4-2.1-1.2-2.8
			c-0.8-0.8-1.9-1.2-2.9-1.2s-2.2,0.5-2.9,1.2c-0.8,0.8-1.2,1.8-1.2,2.8c0,1.2,0.6,2.3,1.5,3.1c0.8,0.6,1.7,0.9,2.6,0.9
			c1,0,2.2-0.4,2.9-1.2C273.4,32.1,273.8,31.1,273.8,29.9 M269.8,32.2c-1.2,0-2-1-2-2.3s0.8-2.3,2-2.3s2,1,2,2.3
			C271.7,31.2,270.9,32.2,269.8,32.2 M256.7,33.8h2.1V30c0-0.4,0-0.9-0.1-1.5c0.4,0.8,0.7,1.2,0.7,1.3l2.9,3.9h2V26h-2v3.8
			c0,0.4,0,0.9,0.1,1.5c-0.4-0.8-0.7-1.2-0.7-1.3l-2.9-3.9h-2.1V33.8z M247.6,33.8h2.1V30c0-0.4,0-0.9-0.1-1.5
			c0.4,0.8,0.7,1.2,0.7,1.3l2.9,3.9h2V26h-2v3.8c0,0.4,0,0.9,0.1,1.5c-0.4-0.8-0.7-1.2-0.7-1.3l-2.9-3.9h-2.1V33.8z M243.8,33.8h2.2
			v-7.7h-2.2V33.8z M231.8,33.8h2.1v-3.1h2.8v3.1h2.1v-7.7h-2.1v3h-2.8v-3h-2.1V33.8z M226.9,33.8h2.1v-5.9h1.7v-1.8h-5.5v1.8h1.7
			V33.8L226.9,33.8z M220.4,33.8h4.7V32h-2.5v-5.9h-2.1L220.4,33.8L220.4,33.8z M214.7,30.9l0.8-2.5c0-0.1,0.1-0.5,0.3-1
			c0.1,0.6,0.2,0.9,0.3,1l0.8,2.5H214.7z M211.8,33.8h2.1l0.4-1.4h3l0.4,1.4h2.1l-2.6-7.7h-2.6L211.8,33.8z M206.6,33.8h4.7v-1.7
			h-2.6v-1.3h2.5v-1.7h-2.5v-1.3h2.6v-1.7h-4.7V33.8z M197.9,33.8h2.1v-3.1h2.8v3.1h2.1v-7.7h-2v3h-2.8v-3H198L197.9,33.8
			L197.9,33.8z"/>
		<path class="st0" d="M247.3,82h1.7v-3.4c0-0.9,0-1.6,0.4-2c0.4-0.6,0.9-0.8,1.8-0.8c1.4,0,1.6,0.8,1.6,2.4V82h1.7v-4.5
			c0-0.8,0-1.6-0.4-2.1c-0.5-0.7-1.2-1-2.3-1c-1.3,0-2.2,0.5-2.8,1.5V70h-1.6L247.3,82L247.3,82z M242.9,82h1.7v-5.9h1.3v-1.5h-1.3
			v-2.8h-1.7v2.8h-1.3v1.5h1.3V82z M238.5,82h1.7V70h-1.7V82z M236.1,82v-7.3h-1.7v1.2c-0.4-0.9-1.3-1.5-2.4-1.5
			c-2,0-3.3,1.6-3.3,3.9c0,2.5,1.3,3.9,3.4,3.9c1,0,1.8-0.4,2.4-1.2v1H236.1z M234.5,78.2c0,1.6-0.8,2.5-2.1,2.5s-2-0.8-2-2.4
			s0.8-2.4,2.1-2.4C233.7,75.9,234.5,76.7,234.5,78.2 M227.5,78.5v-0.3c0-2.4-1.4-3.8-3.8-3.8c-2.3,0-3.8,1.7-3.8,3.9
			c0,2.4,1.5,3.9,3.8,3.9c1.7,0,2.8-0.8,3.7-2.2l-1.4-0.8c-0.6,1-1.2,1.4-2.3,1.4c-1.2,0-2-0.8-2.1-2.2L227.5,78.5L227.5,78.5z
			 M225.7,77.4h-4c0.3-1.1,0.9-1.6,2.1-1.6C224.8,75.8,225.6,76.3,225.7,77.4 M208.6,82h1.9v-5.5h5.6V82h1.9V70.6h-1.9v4.2h-5.6
			v-4.2h-1.9V82z M199.5,75.8v-1.2h-1.7v7.3h1.7v-3.2c0-2,0.4-2.9,1.6-2.9c0.4,0,0.8,0.1,1,0.3l0.6-1.4c-0.5-0.2-0.9-0.4-1.4-0.4
			C200.5,74.4,199.9,74.8,199.5,75.8 M194.4,78.3c0,1.4-1,2.4-2.3,2.4c-1.2,0-2.3-1-2.3-2.4s1-2.4,2.3-2.4
			C193.3,75.9,194.4,76.9,194.4,78.3 M188,78.3c0,1,0.4,2.1,1.2,2.8c0.8,0.8,1.8,1.1,2.8,1.1c1.1,0,2.1-0.4,2.9-1.2
			c0.8-0.8,1.2-1.7,1.2-2.8c0-1-0.5-2.1-1.2-2.8c-0.8-0.8-1.8-1.1-2.9-1.1c-1,0-2.1,0.4-2.8,1.1C188.5,76.3,188,77.2,188,78.3
			 M184,82h1.7v-5.9h1.8v-1.5h-1.8v-1.8c0-1.1,0.3-1.6,1.1-1.6c0.3,0,0.6,0.1,0.8,0.3V70c-0.4-0.1-0.8-0.2-1.1-0.2
			c-1.7,0-2.5,0.9-2.5,2.8v2h-1.3v1.5h1.3V82z M171.3,80.7c0.6,1.1,1.5,1.6,2.9,1.6c1.9,0,3-0.9,3-2.3c0-1-0.6-1.7-1.9-2.2
			c-1.1-0.5-2-0.6-2-1.3c0-0.5,0.4-0.8,1-0.8s1,0.3,1.2,0.8l1.2-0.8c-0.4-0.8-1.2-1.2-2.3-1.2c-1.8,0-2.8,0.9-2.8,2.3
			c0,1,0.8,1.6,2.1,2.3c1,0.5,1.8,0.5,1.8,1.2c0,0.6-0.5,0.9-1.2,0.9c-0.8,0-1.4-0.4-1.7-1.1L171.3,80.7z M164.5,78.2
			c0-1.5,0.8-2.4,2-2.4c1.3,0,2.1,0.9,2.1,2.4c0,1.6-0.8,2.4-2,2.4C165.4,80.8,164.5,79.8,164.5,78.2 M162.9,85.4h1.7V81
			c0.6,0.8,1.4,1.2,2.4,1.2c2.1,0,3.4-1.5,3.4-3.9c0-2.3-1.3-3.9-3.3-3.9c-1.2,0-2.1,0.6-2.5,1.5v-1.2h-1.7L162.9,85.4L162.9,85.4z
			 M158.6,71.5c0,0.6,0.5,1,1,1s1-0.5,1-1s-0.5-1-1-1S158.6,70.9,158.6,71.5 M158.8,82h1.7v-7.3h-1.7V82z M149.4,82h1.7v-3.4
			c0-0.9,0-1.6,0.4-2c0.4-0.6,0.9-0.8,1.8-0.8c1.4,0,1.6,0.8,1.6,2.4V82h1.7v-4.5c0-0.8,0-1.6-0.4-2.1c-0.5-0.7-1.2-1-2.3-1
			c-1.3,0-2.2,0.5-2.8,1.5V70h-1.6L149.4,82L149.4,82z M141.9,80.7c0.6,1.1,1.5,1.6,2.9,1.6c1.9,0,3-0.9,3-2.3c0-1-0.6-1.7-1.9-2.2
			c-1.1-0.5-2-0.6-2-1.3c0-0.5,0.4-0.8,1-0.8s1,0.3,1.2,0.8l1.2-0.8c-0.4-0.8-1.2-1.2-2.3-1.2c-1.8,0-2.8,0.9-2.8,2.3
			c0,1,0.8,1.6,2.1,2.3c1,0.5,1.8,0.5,1.8,1.2c0,0.6-0.5,0.9-1.2,0.9c-0.8,0-1.4-0.4-1.7-1.1L141.9,80.7z M138.6,75.8v-1.2h-1.7v7.3
			h1.7v-3.2c0-2,0.4-2.9,1.6-2.9c0.4,0,0.8,0.1,1,0.3l0.6-1.4c-0.5-0.2-0.9-0.4-1.4-0.4C139.5,74.4,138.9,74.8,138.6,75.8
			 M135.1,78.5v-0.3c0-2.4-1.4-3.8-3.8-3.8c-2.3,0-3.8,1.7-3.8,3.9c0,2.4,1.5,3.9,3.8,3.9c1.7,0,2.8-0.8,3.7-2.2l-1.4-0.8
			c-0.6,1-1.2,1.4-2.3,1.4c-1.2,0-2-0.8-2.1-2.2L135.1,78.5L135.1,78.5z M133.3,77.4h-4c0.3-1.1,0.9-1.6,2.1-1.6
			C132.6,75.8,133.2,76.3,133.3,77.4 M118.7,82h1.7v-3.4c0-0.9,0-1.6,0.4-2c0.4-0.6,0.9-0.8,1.8-0.8c1.4,0,1.6,0.8,1.6,2.4V82h1.7
			v-4.5c0-0.8,0-1.6-0.4-2.1c-0.5-0.7-1.2-1-2.3-1c-1.3,0-2.2,0.5-2.8,1.5v-1.2h-1.6L118.7,82L118.7,82z M114.3,82h1.7v-5.9h1.3
			v-1.5H116v-2.8h-1.7v2.8H113v1.5h1.3V82z M109.8,75.8v-1.2h-1.7v7.3h1.7v-3.2c0-2,0.4-2.9,1.6-2.9c0.4,0,0.8,0.1,1,0.3l0.6-1.4
			c-0.5-0.2-0.9-0.4-1.4-0.4C110.7,74.4,110.1,74.8,109.8,75.8 M105.7,82v-7.3H104v1.2c-0.4-0.9-1.3-1.5-2.4-1.5
			c-2,0-3.3,1.6-3.3,3.9c0,2.5,1.3,3.9,3.4,3.9c1,0,1.8-0.4,2.4-1.2v1H105.7z M104.2,78.2c0,1.6-0.8,2.5-2.1,2.5c-1.3,0-2-0.8-2-2.4
			s0.8-2.4,2.1-2.4C103.3,75.9,104.2,76.7,104.2,78.2 M93,75.3v-3.2h0.5c1.7,0,2.5,0.3,2.5,1.7c0,1.3-0.8,1.5-2.5,1.5H93z
			 M92.9,76.9h1c1.1,0,2.1,0,2.8-0.6c0.7-0.5,1.1-1.5,1.1-2.5c0-1.1-0.5-2.1-1.1-2.5c-0.8-0.6-1.7-0.6-2.8-0.6h-2.8V82h1.7
			L92.9,76.9L92.9,76.9z"/>
	</g>
</g>
</svg>
