<?xml version="1.0" standalone="no"?>
<!DOCTYPE svg PUBLIC "-//W3C//DTD SVG 20010904//EN"
 "http://www.w3.org/TR/2001/REC-SVG-20010904/DTD/svg10.dtd">
<svg version="1.0" xmlns="http://www.w3.org/2000/svg"
 width="2336.000000pt" height="1248.000000pt" viewBox="0 0 2336.000000 1248.000000"
 preserveAspectRatio="xMidYMid meet">

<g transform="translate(0.000000,1248.000000) scale(0.100000,-0.100000)"
fill="#000000" stroke="none">
<path d="M2275 9391 c-87 -40 -135 -116 -135 -213 0 -79 24 -133 79 -180 162
-138 413 -6 388 204 -11 90 -74 169 -156 197 -50 16 -131 13 -176 -8z"/>
<path d="M4880 7371 c-85 -28 -142 -84 -165 -166 -44 -150 67 -297 222 -297
96 0 162 38 210 119 22 38 27 59 27 112 1 96 -44 169 -128 213 -43 22 -128 32
-166 19z"/>
</g>
</svg>
