<svg xmlns="http://www.w3.org/2000/svg" width="8561.254" height="332.314" viewBox="0 0 8561.254 332.314">
  <path id="wave" d="M0,385.217l59.453-41.323c59.453-41.323,178.359-123.97,297.266-137.717,118.906-14.084,237.813,41.576,356.719,82.647,118.906,41.576,237.813,68.563,356.719,55.07s237.813-69.153,356.719-68.9c118.906-.253,237.813,55.407,356.719,48.239s237.813-75.479,356.719-110.224c118.906-34.408,237.813-34.408,356.719-41.323,118.906-6.578,237.813-20.915,356.719-27.493,118.906-6.915,237.813-6.915,356.719,6.831,118.906,14.084,237.813,41.07,356.719,41.323,118.906-.253,237.813-27.24,356.719-27.493,118.906.253,237.813,27.24,356.719,89.478,118.906,61.732,237.813,158.716,356.719,172.209s237.813-54.817,356.719-110.224c118.906-55.07,237.813-96.393,356.719-75.732S5588.6,343.893,5707.5,336.978c118.906-6.578,237.813-103.562,356.719-137.717s237.813-7.168,356.719,13.746c118.906,20.409,237.813,34.745,356.719,48.239s237.813,27.83,356.719,6.915c118.907-20.409,237.813-76.069,356.719-96.478,118.906-20.915,237.813-6.578,356.719,41.323,118.906,48.239,237.813,130.886,356.719,144.632,118.906,14.084,237.813-41.576,297.266-68.816l59.453-27.577V95.953H0Z" transform="translate(8561.254 428.267) rotate(-180)" fill="#112133"/>
</svg>
