<?xml version="1.0" encoding="utf-8"?>
<!-- Generator: Adobe Illustrator 23.0.3, SVG Export Plug-In . SVG Version: 6.00 Build 0)  -->
<svg version="1.1" id="Layer_1" xmlns="http://www.w3.org/2000/svg" xmlns:xlink="http://www.w3.org/1999/xlink" x="0px" y="0px"
	 viewBox="0 0 284 282" style="enable-background:new 0 0 284 282;" xml:space="preserve">
<path style="fill:#A8123E;" d="M210.1,263.7c-1.4-0.2-3.2,0-4.5,0.7c-16.7,8.5-34.4,13.6-53.2,14.9c-25.5,1.8-49.9-2.8-72.7-14.4
	C16.2,232.4-13.2,158.7,12.7,92C33.5,38.4,74.2,8.8,131.4,2.7c22.3-2.4,44.2,1.1,64.6,10.4c50.4,22.8,78.9,62,84.4,117.1
	c2.7,26.6-3,51.9-15.6,75.5c-1.1,2.1-0.7,2.3-0.8,4.8v60.9L210.1,263.7z"/>
</svg>
