<?xml version="1.0" encoding="utf-8"?>
<!-- Generator: Adobe Illustrator 22.0.1, SVG Export Plug-In . SVG Version: 6.00 Build 0)  -->
<!DOCTYPE svg PUBLIC "-//W3C//DTD SVG 1.1//EN" "http://www.w3.org/Graphics/SVG/1.1/DTD/svg11.dtd">
<svg version="1.1" id="Layer_9" xmlns="http://www.w3.org/2000/svg" xmlns:xlink="http://www.w3.org/1999/xlink" x="0px" y="0px"
	 width="210px" height="83.2px" viewBox="0 0 210 83.2" style="enable-background:new 0 0 210 83.2;" xml:space="preserve">
<style type="text/css">
	.st0{fill:#25E8E3;}
	.st1{fill:#24ADEA;}
	.st2{fill:url(#SVGID_1_);}
	.st3{fill:url(#SVGID_2_);}
	.st4{fill:url(#SVGID_3_);}
	.st5{fill:url(#SVGID_4_);}
	.st6{fill:url(#SVGID_5_);}
	.st7{fill:url(#SVGID_6_);}
	.st8{fill:url(#SVGID_7_);}
	.st9{fill:url(#SVGID_8_);}
	.st10{fill:#FFFFFF;fill-opacity:0.73;}
</style>
<g>
	<path class="st0" d="M100.3,21.7c-3.5,0-4.8,1.8-4.8,3.7c0,5.5,11.1,3.2,11.1,9.8c0,3.3-2.3,5.2-6.5,5.2c-3.2,0-5.1-1.5-6.3-3.4
		c-0.1-0.1-0.1-0.2-0.1-0.2c0-0.2,0.2-0.4,0.4-0.4c0.2,0,0.3,0.1,0.4,0.2c1.1,1.7,2.8,3,5.6,3c3.6,0,5.6-1.4,5.6-4.4
		c0-6-11.1-3.4-11.1-9.8c0-2.4,1.7-4.5,5.7-4.5c2.6,0,4.5,1,5.8,2.8c0.1,0.1,0.1,0.2,0.1,0.3c0,0.2-0.2,0.4-0.4,0.4
		c-0.2,0-0.2-0.1-0.3-0.2C104.5,23,103.2,21.7,100.3,21.7z"/>
	<path class="st0" d="M131,34.1l-2.3,5.9c-0.1,0.2-0.2,0.3-0.4,0.3c-0.2,0-0.4-0.2-0.4-0.4c0-0.1,0-0.2,0.1-0.2l7.2-18.2
		c0.1-0.2,0.2-0.3,0.4-0.3c0.2,0,0.4,0.1,0.4,0.3l7.2,18.2c0,0.1,0.1,0.2,0.1,0.2c0,0.2-0.2,0.4-0.5,0.4c-0.2,0-0.4-0.1-0.4-0.3
		l-2.3-5.8H131z M135.5,22.5l-4.2,10.8h8.4L135.5,22.5z"/>
	<path class="st0" d="M166.6,39.6c0,0.3-0.2,0.4-0.4,0.4c-0.2,0-0.4-0.2-0.4-0.4V21.8c0-0.3,0.2-0.4,0.4-0.4h9.4
		c0.2,0,0.4,0.2,0.4,0.4s-0.2,0.4-0.4,0.4h-9v8.4h7c0.2,0,0.4,0.2,0.4,0.4c0,0.2-0.2,0.4-0.4,0.4h-7V39.6z"/>
	<path class="st0" d="M199.6,40.1c-0.2,0-0.4-0.2-0.4-0.4V21.8c0-0.3,0.2-0.4,0.4-0.4h9.4c0.2,0,0.4,0.2,0.4,0.4s-0.2,0.4-0.4,0.4
		h-9v8.1h7c0.2,0,0.4,0.2,0.4,0.4c0,0.2-0.2,0.4-0.4,0.4h-7v8.3h9.3c0.2,0,0.4,0.2,0.4,0.4c0,0.2-0.2,0.4-0.4,0.4H199.6z"/>
	<path class="st1" d="M103.8,50.4l-3,10.7c-0.2,0.6-0.8,1.1-1.5,1.1c-0.7,0-1.2-0.4-1.4-1l-4.4-14.9c-0.1-0.2-0.1-0.3-0.1-0.5
		c0-0.8,0.7-1.5,1.5-1.5c0.8,0,1.3,0.6,1.4,1l3,10.9l3-10.9c0.2-0.7,0.8-1.1,1.5-1.1s1.3,0.4,1.5,1.1l3,10.9l3-10.9
		c0.1-0.4,0.6-1,1.4-1c0.8,0,1.5,0.7,1.5,1.5c0,0.2,0,0.3-0.1,0.5l-4.4,14.9c-0.2,0.6-0.8,1-1.4,1c-0.7,0-1.3-0.5-1.5-1.1
		L103.8,50.4z"/>
	<path class="st1" d="M128.1,57.4l-1.6,3.8c-0.2,0.5-0.7,1-1.4,1c-0.8,0-1.5-0.7-1.5-1.5c0-0.2,0-0.4,0.1-0.5l6.1-14.9
		c0.2-0.4,0.6-0.9,1.4-0.9s1.2,0.6,1.4,0.9l6.1,14.9c0.1,0.2,0.1,0.4,0.1,0.5c0,0.8-0.7,1.5-1.5,1.5c-0.7,0-1.2-0.4-1.4-1l-1.6-3.8
		H128.1z M131.2,49.2l-2.1,5.5h4.3L131.2,49.2z"/>
	<path class="st1" d="M156,47.1v13.5c0,0.8-0.7,1.5-1.5,1.5c-0.8,0-1.5-0.7-1.5-1.5V47.1h-4c-0.7,0-1.3-0.6-1.3-1.3
		c0-0.7,0.6-1.3,1.3-1.3h11c0.7,0,1.3,0.6,1.3,1.3c0,0.7-0.6,1.3-1.3,1.3H156z"/>
	<path class="st1" d="M176.9,51.8h4.9c0.7,0,1.3,0.6,1.3,1.3s-0.6,1.3-1.3,1.3h-4.9v4.8h6.9c0.8,0,1.4,0.6,1.4,1.4
		c0,0.8-0.6,1.4-1.4,1.4h-8.4c-0.8,0-1.5-0.7-1.5-1.5V46c0-0.8,0.7-1.5,1.5-1.5h8.1c0.8,0,1.4,0.6,1.4,1.4c0,0.8-0.6,1.4-1.4,1.4
		h-6.6V51.8z"/>
	<path class="st1" d="M200.9,55.3v5.4c0,0.8-0.7,1.5-1.5,1.5c-0.8,0-1.5-0.7-1.5-1.5V46c0-0.8,0.7-1.5,1.5-1.5h5
		c3.5,0,5.5,2.5,5.5,5.4c0,2.5-1.5,4.9-4,5.2l3.8,4.7c0.2,0.3,0.3,0.6,0.3,0.9c0,0.8-0.7,1.5-1.5,1.5c-0.4,0-0.9-0.2-1.2-0.5
		l-4.7-6.4H200.9z M200.9,47.2v5.4h3.5c1.6,0,2.3-1.3,2.3-2.7c0-1.4-0.7-2.7-2.4-2.7H200.9z"/>
</g>
<g>
	<linearGradient id="SVGID_1_" gradientUnits="userSpaceOnUse" x1="16.275" y1="73.7624" x2="65.9984" y2="10.5088">
		<stop  offset="0" style="stop-color:#D3EBF4"/>
		<stop  offset="1" style="stop-color:#FBF5F9"/>
	</linearGradient>
	<circle class="st2" cx="41.6" cy="41.6" r="41.6"/>
	<g>
		<linearGradient id="SVGID_2_" gradientUnits="userSpaceOnUse" x1="11.3881" y1="41.417" x2="67.6115" y2="39.9374">
			<stop  offset="0" style="stop-color:#00468C"/>
			<stop  offset="1" style="stop-color:#0682BF"/>
		</linearGradient>
		<path class="st3" d="M3.2,41.5c0,0.1,0,0.1,0,0.2C3.2,41.7,3.2,41.6,3.2,41.5C3.2,41.5,3.2,41.5,3.2,41.5z"/>
		<linearGradient id="SVGID_3_" gradientUnits="userSpaceOnUse" x1="75.9735" y1="29.9667" x2="68.0779" y2="39.5171">
			<stop  offset="0" style="stop-color:#0682BF"/>
			<stop  offset="1" style="stop-color:#00468C"/>
		</linearGradient>
		<path class="st4" d="M76.2,41.2c0,0.3,3.4-0.6,3.4-0.3c0-3.6,0.2-13.5-6-13.5c-7.9,0-9.4,2.9-12.4,4.9
			C73.5,33.5,74.2,38.2,76.2,41.2z"/>
		<linearGradient id="SVGID_4_" gradientUnits="userSpaceOnUse" x1="11.3679" y1="40.6468" x2="76.4411" y2="38.9344">
			<stop  offset="0" style="stop-color:#00468C"/>
			<stop  offset="1" style="stop-color:#0682BF"/>
		</linearGradient>
		<path class="st5" d="M3.3,41.1c0-0.1,0-0.3,0.1-0.5C3.3,40.8,3.3,40.9,3.3,41.1z"/>
		<linearGradient id="SVGID_5_" gradientUnits="userSpaceOnUse" x1="43.7349" y1="50.2136" x2="18.8137" y2="31.8102">
			<stop  offset="0" style="stop-color:#00468C"/>
			<stop  offset="1" style="stop-color:#0682BF"/>
		</linearGradient>
		<path class="st6" d="M22.4,49.6c11.7-0.4,17.2-11.7,27.5-15.9c-7.8-1.8-13-8.1-27.4-8.1c-10.9,0-16.3,8.2-18.9,13.7
			c-0.2,0.4-0.3,0.8-0.4,1.2C6.6,44.4,12.8,49.9,22.4,49.6z"/>
		<linearGradient id="SVGID_6_" gradientUnits="userSpaceOnUse" x1="45.1164" y1="88.2365" x2="22.3252" y2="62.2165">
			<stop  offset="0" style="stop-color:#25E8E3"/>
			<stop  offset="1" style="stop-color:#24ADEA"/>
		</linearGradient>
		<path class="st7" d="M3.3,40.4c0,0.1,0,0.1,0,0.2C3.3,40.6,3.3,40.5,3.3,40.4C3.3,40.4,3.3,40.4,3.3,40.4z"/>
		<linearGradient id="SVGID_7_" gradientUnits="userSpaceOnUse" x1="44.6808" y1="88.6181" x2="21.8896" y2="62.598">
			<stop  offset="0" style="stop-color:#25E8E3"/>
			<stop  offset="1" style="stop-color:#24ADEA"/>
		</linearGradient>
		<path class="st8" d="M3.2,41.5c0-0.1,0-0.3,0-0.4C3.2,41.3,3.2,41.4,3.2,41.5z"/>
		<linearGradient id="SVGID_8_" gradientUnits="userSpaceOnUse" x1="64.0427" y1="72.2586" x2="41.0895" y2="46.0536">
			<stop  offset="0" style="stop-color:#25E8E3"/>
			<stop  offset="1" style="stop-color:#24ADEA"/>
		</linearGradient>
		<path class="st9" d="M79.6,36.6c-0.3,2.2-0.7,2.7-1.5,1.9c-2.6-2.6-7.4-5.3-16.9-6.2c-0.6-0.1-1.2-0.1-1.8-0.2
			c-3.6-0.2-6.7,0.4-9.4,1.5c-10.3,4.2-15.8,15.5-27.5,15.9c-9.6,0.3-15.9-5.2-19.1-9.1c0,0.1,0,0.1,0,0.2c0,0.2,0,0.4-0.1,0.5
			c0,0.1,0,0.3,0,0.4c0,0.1,0,0.1,0,0.2c0,21.2,17.2,38.3,38.3,38.3c21.2,0,38.9-15.9,38.3-38.3C79.9,41.4,79.6,37,79.6,36.6z"/>
	</g>
	<path class="st10" d="M72.9,21C69.2,9.3,56.7,2.1,43.8,4.6c-1.9,0.4-3.7,0.9-5.4,1.6C52.5,3.9,66,10.1,72.9,21z"/>
</g>
</svg>
